<?xml version="1.0" encoding="UTF-8"?>
<!DOCTYPE svg PUBLIC "-//W3C//DTD SVG 1.1//EN" "http://www.w3.org/Graphics/SVG/1.1/DTD/svg11.dtd">
<svg xmlns="http://www.w3.org/2000/svg" xmlns:xlink="http://www.w3.org/1999/xlink" version="1.1" width="760px" height="671px" viewBox="-0.5 -0.5 760 671" style="background-color: rgb(255, 255, 255);"><defs><clipPath id="mx-clip-270-285-30-30-0"><rect x="270" y="285" width="30" height="30"/></clipPath><clipPath id="mx-clip-306-285-144-30-0"><rect x="306" y="285" width="144" height="30"/></clipPath><clipPath id="mx-clip-306-315-144-30-0"><rect x="306" y="315" width="144" height="30"/></clipPath><clipPath id="mx-clip-306-345-144-30-0"><rect x="306" y="345" width="144" height="30"/></clipPath><clipPath id="mx-clip-306-375-144-30-0"><rect x="306" y="375" width="144" height="30"/></clipPath><clipPath id="mx-clip-306-405-144-30-0"><rect x="306" y="405" width="144" height="30"/></clipPath><clipPath id="mx-clip-0-30-60-30-0"><rect x="0" y="30" width="60" height="30"/></clipPath><clipPath id="mx-clip-66-30-114-30-0"><rect x="66" y="30" width="114" height="30"/></clipPath><clipPath id="mx-clip-0-60-60-30-0"><rect x="0" y="60" width="60" height="30"/></clipPath><clipPath id="mx-clip-66-60-114-30-0"><rect x="66" y="60" width="114" height="30"/></clipPath><clipPath id="mx-clip-66-90-114-30-0"><rect x="66" y="90" width="114" height="30"/></clipPath><clipPath id="mx-clip-270-30-30-30-0"><rect x="270" y="30" width="30" height="30"/></clipPath><clipPath id="mx-clip-306-30-144-30-0"><rect x="306" y="30" width="144" height="30"/></clipPath><clipPath id="mx-clip-306-60-144-30-0"><rect x="306" y="60" width="144" height="30"/></clipPath><clipPath id="mx-clip-306-90-144-30-0"><rect x="306" y="90" width="144" height="30"/></clipPath><clipPath id="mx-clip-306-120-144-30-0"><rect x="306" y="120" width="144" height="30"/></clipPath><clipPath id="mx-clip-306-150-144-30-0"><rect x="306" y="150" width="144" height="30"/></clipPath><clipPath id="mx-clip-306-180-144-30-0"><rect x="306" y="180" width="144" height="30"/></clipPath><clipPath id="mx-clip-306-210-144-30-0"><rect x="306" y="210" width="144" height="30"/></clipPath><clipPath id="mx-clip-530-30-30-30-0"><rect x="530" y="30" width="30" height="30"/></clipPath><clipPath id="mx-clip-566-30-144-30-0"><rect x="566" y="30" width="144" height="30"/></clipPath><clipPath id="mx-clip-530-60-30-30-0"><rect x="530" y="60" width="30" height="30"/></clipPath><clipPath id="mx-clip-566-60-144-30-0"><rect x="566" y="60" width="144" height="30"/></clipPath><clipPath id="mx-clip-566-90-144-30-0"><rect x="566" y="90" width="144" height="30"/></clipPath><clipPath id="mx-clip-566-120-144-30-0"><rect x="566" y="120" width="144" height="30"/></clipPath><clipPath id="mx-clip-566-150-144-30-0"><rect x="566" y="150" width="144" height="30"/></clipPath><clipPath id="mx-clip-566-180-144-30-0"><rect x="566" y="180" width="144" height="30"/></clipPath><clipPath id="mx-clip-530-285-60-30-0"><rect x="530" y="285" width="60" height="30"/></clipPath><clipPath id="mx-clip-596-285-114-30-0"><rect x="596" y="285" width="114" height="30"/></clipPath><clipPath id="mx-clip-530-315-60-30-0"><rect x="530" y="315" width="60" height="30"/></clipPath><clipPath id="mx-clip-596-315-114-30-0"><rect x="596" y="315" width="114" height="30"/></clipPath><clipPath id="mx-clip-596-345-114-30-0"><rect x="596" y="345" width="114" height="30"/></clipPath><clipPath id="mx-clip-530-520-30-30-0"><rect x="530" y="520" width="30" height="30"/></clipPath><clipPath id="mx-clip-566-520-144-30-0"><rect x="566" y="520" width="144" height="30"/></clipPath><clipPath id="mx-clip-530-550-30-30-0"><rect x="530" y="550" width="30" height="30"/></clipPath><clipPath id="mx-clip-566-550-144-30-0"><rect x="566" y="550" width="144" height="30"/></clipPath><clipPath id="mx-clip-530-580-30-30-0"><rect x="530" y="580" width="30" height="30"/></clipPath><clipPath id="mx-clip-566-580-144-30-0"><rect x="566" y="580" width="144" height="30"/></clipPath><clipPath id="mx-clip-530-610-30-30-0"><rect x="530" y="610" width="30" height="30"/></clipPath><clipPath id="mx-clip-566-610-144-30-0"><rect x="566" y="610" width="144" height="30"/></clipPath><clipPath id="mx-clip-566-640-144-30-0"><rect x="566" y="640" width="144" height="30"/></clipPath><clipPath id="mx-clip-270-520-60-30-0"><rect x="270" y="520" width="60" height="30"/></clipPath><clipPath id="mx-clip-336-520-114-30-0"><rect x="336" y="520" width="114" height="30"/></clipPath><clipPath id="mx-clip-270-550-60-30-0"><rect x="270" y="550" width="60" height="30"/></clipPath><clipPath id="mx-clip-336-550-114-30-0"><rect x="336" y="550" width="114" height="30"/></clipPath><clipPath id="mx-clip-336-580-114-30-0"><rect x="336" y="580" width="114" height="30"/></clipPath><clipPath id="mx-clip-0-520-60-30-0"><rect x="0" y="520" width="60" height="30"/></clipPath><clipPath id="mx-clip-66-520-114-30-0"><rect x="66" y="520" width="114" height="30"/></clipPath><clipPath id="mx-clip-0-550-60-30-0"><rect x="0" y="550" width="60" height="30"/></clipPath><clipPath id="mx-clip-66-550-114-30-0"><rect x="66" y="550" width="114" height="30"/></clipPath><clipPath id="mx-clip-0-284-30-30-0"><rect x="0" y="284" width="30" height="30"/></clipPath><clipPath id="mx-clip-36-284-144-30-0"><rect x="36" y="284" width="144" height="30"/></clipPath><clipPath id="mx-clip-0-314-30-30-0"><rect x="0" y="314" width="30" height="30"/></clipPath><clipPath id="mx-clip-36-314-144-30-0"><rect x="36" y="314" width="144" height="30"/></clipPath><clipPath id="mx-clip-0-344-30-30-0"><rect x="0" y="344" width="30" height="30"/></clipPath><clipPath id="mx-clip-36-344-144-30-0"><rect x="36" y="344" width="144" height="30"/></clipPath><clipPath id="mx-clip-36-374-144-30-0"><rect x="36" y="374" width="144" height="30"/></clipPath><clipPath id="mx-clip-36-404-144-30-0"><rect x="36" y="404" width="144" height="30"/></clipPath></defs><g><path d="M 270 300 L 220 300 L 220 100 L 195.5 100" fill="none" stroke="rgb(0, 0, 0)" stroke-miterlimit="10" pointer-events="stroke"/><path d="M 266 304 L 266 296 M 262 304 L 262 296" fill="none" stroke="rgb(0, 0, 0)" stroke-miterlimit="10" pointer-events="all"/><ellipse cx="192" cy="100" rx="3" ry="3" fill="none" stroke="rgb(0, 0, 0)" pointer-events="all"/><path d="M 180 104 L 188 100 L 180 96 M 188 100 L 180 100" fill="none" stroke="rgb(0, 0, 0)" stroke-miterlimit="10" pointer-events="all"/><path d="M 450 330 L 490 330 L 490 105 L 514.5 105" fill="none" stroke="rgb(0, 0, 0)" stroke-miterlimit="10" pointer-events="stroke"/><path d="M 454 326 L 454 334 M 458 326 L 458 334" fill="none" stroke="rgb(0, 0, 0)" stroke-miterlimit="10" pointer-events="all"/><ellipse cx="518" cy="105" rx="3" ry="3" fill="none" stroke="rgb(0, 0, 0)" pointer-events="all"/><path d="M 530 101 L 522 105 L 530 109 M 522 105 L 530 105" fill="none" stroke="rgb(0, 0, 0)" stroke-miterlimit="10" pointer-events="all"/><path d="M 450 360 L 470 360 L 514.5 360" fill="none" stroke="rgb(0, 0, 0)" stroke-miterlimit="10" pointer-events="stroke"/><path d="M 454 356 L 454 364 M 458 356 L 458 364" fill="none" stroke="rgb(0, 0, 0)" stroke-miterlimit="10" pointer-events="all"/><ellipse cx="518" cy="360" rx="3" ry="3" fill="none" stroke="rgb(0, 0, 0)" pointer-events="all"/><path d="M 530 356 L 522 360 L 530 364 M 522 360 L 530 360" fill="none" stroke="rgb(0, 0, 0)" stroke-miterlimit="10" pointer-events="all"/><path d="M 450 410 L 620 410 L 620 474.5" fill="none" stroke="rgb(0, 0, 0)" stroke-miterlimit="10" pointer-events="stroke"/><path d="M 454 406 L 454 414 M 458 406 L 458 414" fill="none" stroke="rgb(0, 0, 0)" stroke-miterlimit="10" pointer-events="all"/><ellipse cx="620" cy="478" rx="3" ry="3" fill="none" stroke="rgb(0, 0, 0)" pointer-events="all"/><path d="M 624 490 L 620 482 L 616 490 M 620 482 L 620 490" fill="none" stroke="rgb(0, 0, 0)" stroke-miterlimit="10" pointer-events="all"/><path d="M 360 435 L 360 474.5" fill="none" stroke="rgb(0, 0, 0)" stroke-miterlimit="10" pointer-events="stroke"/><path d="M 364 439 L 356 439 M 364 443 L 356 443" fill="none" stroke="rgb(0, 0, 0)" stroke-miterlimit="10" pointer-events="all"/><ellipse cx="360" cy="478" rx="3" ry="3" fill="none" stroke="rgb(0, 0, 0)" pointer-events="all"/><path d="M 364 490 L 360 482 L 356 490 M 360 482 L 360 490" fill="none" stroke="rgb(0, 0, 0)" stroke-miterlimit="10" pointer-events="all"/><path d="M 254.5 390 L 210 390 L 210 535 L 180 535" fill="none" stroke="rgb(0, 0, 0)" stroke-miterlimit="10" pointer-events="stroke"/><ellipse cx="258" cy="390" rx="3" ry="3" fill="none" stroke="rgb(0, 0, 0)" pointer-events="all"/><path d="M 270 386 L 262 390 L 270 394 M 262 390 L 270 390" fill="none" stroke="rgb(0, 0, 0)" stroke-miterlimit="10" pointer-events="all"/><path d="M 184 531 L 184 539 M 188 531 L 188 539" fill="none" stroke="rgb(0, 0, 0)" stroke-miterlimit="10" pointer-events="all"/><path d="M 270 285 L 270 255 L 450 255 L 450 285" fill="rgb(255, 255, 255)" stroke="rgb(0, 0, 0)" stroke-miterlimit="10" pointer-events="all"/><path d="M 270 285 L 270 435 L 450 435 L 450 285" fill="none" stroke="rgb(0, 0, 0)" stroke-miterlimit="10" pointer-events="none"/><path d="M 270 285 L 450 285" fill="none" stroke="rgb(0, 0, 0)" stroke-miterlimit="10" pointer-events="none"/><path d="M 300 285 L 300 315 L 300 345 L 300 375 L 300 405 L 300 435" fill="none" stroke="rgb(0, 0, 0)" stroke-miterlimit="10" pointer-events="none"/><g fill="rgb(0, 0, 0)" font-family="Helvetica" font-weight="bold" pointer-events="none" text-anchor="middle" font-size="12px"><text x="359.5" y="274.5">Users</text></g><path d="M 270 285 M 450 285 M 450 315 L 270 315" fill="none" stroke="rgb(0, 0, 0)" stroke-linecap="square" stroke-miterlimit="10" pointer-events="none"/><path d="M 270 285 M 300 285 M 300 315 M 270 315" fill="none" stroke="rgb(0, 0, 0)" stroke-linecap="square" stroke-miterlimit="10" pointer-events="none"/><g fill="rgb(0, 0, 0)" font-family="Helvetica" font-weight="bold" pointer-events="none" clip-path="url(#mx-clip-270-285-30-30-0)" text-anchor="middle" font-size="12px"><text x="284.5" y="304.5">PK</text></g><path d="M 300 285 M 450 285 M 450 315 M 300 315" fill="none" stroke="rgb(0, 0, 0)" stroke-linecap="square" stroke-miterlimit="10" pointer-events="none"/><g fill="rgb(0, 0, 0)" font-family="Helvetica" font-weight="bold" text-decoration="underline" pointer-events="none" clip-path="url(#mx-clip-306-285-144-30-0)" font-size="12px"><text x="307.5" y="304.5">user_id</text></g><path d="M 270 315 M 300 315 M 300 345 M 270 345" fill="none" stroke="rgb(0, 0, 0)" stroke-linecap="square" stroke-miterlimit="10" pointer-events="none"/><path d="M 300 315 M 450 315 M 450 345 M 300 345" fill="none" stroke="rgb(0, 0, 0)" stroke-linecap="square" stroke-miterlimit="10" pointer-events="none"/><g fill="rgb(0, 0, 0)" font-family="Helvetica" pointer-events="none" clip-path="url(#mx-clip-306-315-144-30-0)" font-size="12px"><text x="307.5" y="334.5">email</text></g><path d="M 270 345 M 300 345 M 300 375 M 270 375" fill="none" stroke="rgb(0, 0, 0)" stroke-linecap="square" stroke-miterlimit="10" pointer-events="none"/><path d="M 300 345 M 450 345 M 450 375 M 300 375" fill="none" stroke="rgb(0, 0, 0)" stroke-linecap="square" stroke-miterlimit="10" pointer-events="none"/><g fill="rgb(0, 0, 0)" font-family="Helvetica" pointer-events="none" clip-path="url(#mx-clip-306-345-144-30-0)" font-size="12px"><text x="307.5" y="364.5">username</text></g><path d="M 270 375 M 300 375 M 300 405 M 270 405" fill="none" stroke="rgb(0, 0, 0)" stroke-linecap="square" stroke-miterlimit="10" pointer-events="none"/><path d="M 300 375 M 450 375 M 450 405 M 300 405" fill="none" stroke="rgb(0, 0, 0)" stroke-linecap="square" stroke-miterlimit="10" pointer-events="none"/><g fill="rgb(0, 0, 0)" font-family="Helvetica" pointer-events="none" clip-path="url(#mx-clip-306-375-144-30-0)" font-size="12px"><text x="307.5" y="394.5">password</text></g><path d="M 270 405 M 300 405 M 300 435 M 270 435" fill="none" stroke="rgb(0, 0, 0)" stroke-linecap="square" stroke-miterlimit="10" pointer-events="none"/><path d="M 300 405 M 450 405 M 450 435 M 300 435" fill="none" stroke="rgb(0, 0, 0)" stroke-linecap="square" stroke-miterlimit="10" pointer-events="none"/><g fill="rgb(0, 0, 0)" font-family="Helvetica" pointer-events="none" clip-path="url(#mx-clip-306-405-144-30-0)" font-size="12px"><text x="307.5" y="424.5">profile_pic_src</text></g><path d="M 195.5 75 L 200 75 L 270 75" fill="none" stroke="rgb(0, 0, 0)" stroke-miterlimit="10" pointer-events="none"/><ellipse cx="192" cy="75" rx="3" ry="3" fill="none" stroke="rgb(0, 0, 0)" pointer-events="none"/><path d="M 180 79 L 188 75 L 180 71 M 188 75 L 180 75" fill="none" stroke="rgb(0, 0, 0)" stroke-miterlimit="10" pointer-events="none"/><path d="M 266 79 L 266 71 M 262 79 L 262 71" fill="none" stroke="rgb(0, 0, 0)" stroke-miterlimit="10" pointer-events="none"/><path d="M 0 30 L 0 0 L 180 0 L 180 30" fill="rgb(255, 255, 255)" stroke="rgb(0, 0, 0)" stroke-miterlimit="10" pointer-events="none"/><path d="M 0 30 L 0 120 L 180 120 L 180 30" fill="none" stroke="rgb(0, 0, 0)" stroke-miterlimit="10" pointer-events="none"/><path d="M 0 30 L 180 30" fill="none" stroke="rgb(0, 0, 0)" stroke-miterlimit="10" pointer-events="none"/><path d="M 60 30 L 60 60 L 60 90 L 60 120" fill="none" stroke="rgb(0, 0, 0)" stroke-miterlimit="10" pointer-events="none"/><g fill="rgb(0, 0, 0)" font-family="Helvetica" font-weight="bold" pointer-events="none" text-anchor="middle" font-size="12px"><text x="89.5" y="19.5">Members</text></g><path d="M 0 30 M 60 30 M 60 60 M 0 60" fill="none" stroke="rgb(0, 0, 0)" stroke-linecap="square" stroke-miterlimit="10" pointer-events="none"/><g fill="rgb(0, 0, 0)" font-family="Helvetica" font-weight="bold" pointer-events="none" clip-path="url(#mx-clip-0-30-60-30-0)" text-anchor="middle" font-size="12px"><text x="29.5" y="49.5">PK,FK1</text></g><path d="M 60 30 M 180 30 M 180 60 M 60 60" fill="none" stroke="rgb(0, 0, 0)" stroke-linecap="square" stroke-miterlimit="10" pointer-events="none"/><g fill="rgb(0, 0, 0)" font-family="Helvetica" font-weight="bold" text-decoration="underline" pointer-events="none" clip-path="url(#mx-clip-66-30-114-30-0)" font-size="12px"><text x="67.5" y="49.5">community_id</text></g><path d="M 0 60 M 180 60 M 180 90 L 0 90" fill="none" stroke="rgb(0, 0, 0)" stroke-linecap="square" stroke-miterlimit="10" pointer-events="none"/><path d="M 0 60 M 60 60 M 60 90 M 0 90" fill="none" stroke="rgb(0, 0, 0)" stroke-linecap="square" stroke-miterlimit="10" pointer-events="none"/><g fill="rgb(0, 0, 0)" font-family="Helvetica" font-weight="bold" pointer-events="none" clip-path="url(#mx-clip-0-60-60-30-0)" text-anchor="middle" font-size="12px"><text x="29.5" y="79.5">PK,FK2</text></g><path d="M 60 60 M 180 60 M 180 90 M 60 90" fill="none" stroke="rgb(0, 0, 0)" stroke-linecap="square" stroke-miterlimit="10" pointer-events="none"/><g fill="rgb(0, 0, 0)" font-family="Helvetica" font-weight="bold" text-decoration="underline" pointer-events="none" clip-path="url(#mx-clip-66-60-114-30-0)" font-size="12px"><text x="67.5" y="79.5">user_id</text></g><path d="M 0 90 M 60 90 M 60 120 M 0 120" fill="none" stroke="rgb(0, 0, 0)" stroke-linecap="square" stroke-miterlimit="10" pointer-events="none"/><path d="M 60 90 M 180 90 M 180 120 M 60 120" fill="none" stroke="rgb(0, 0, 0)" stroke-linecap="square" stroke-miterlimit="10" pointer-events="none"/><g fill="rgb(0, 0, 0)" font-family="Helvetica" pointer-events="none" clip-path="url(#mx-clip-66-90-114-30-0)" font-size="12px"><text x="67.5" y="109.5">type</text></g><path d="M 270 30 L 270 0 L 450 0 L 450 30" fill="rgb(255, 255, 255)" stroke="rgb(0, 0, 0)" stroke-miterlimit="10" pointer-events="none"/><path d="M 270 30 L 270 240 L 450 240 L 450 30" fill="none" stroke="rgb(0, 0, 0)" stroke-miterlimit="10" pointer-events="none"/><path d="M 270 30 L 450 30" fill="none" stroke="rgb(0, 0, 0)" stroke-miterlimit="10" pointer-events="none"/><path d="M 300 30 L 300 60 L 300 90 L 300 120 L 300 150 L 300 180 L 300 210 L 300 240" fill="none" stroke="rgb(0, 0, 0)" stroke-miterlimit="10" pointer-events="none"/><g fill="rgb(0, 0, 0)" font-family="Helvetica" font-weight="bold" pointer-events="none" text-anchor="middle" font-size="12px"><text x="359.5" y="19.5">Communities</text></g><path d="M 270 30 M 450 30 M 450 60 L 270 60" fill="none" stroke="rgb(0, 0, 0)" stroke-linecap="square" stroke-miterlimit="10" pointer-events="none"/><path d="M 270 30 M 300 30 M 300 60 M 270 60" fill="none" stroke="rgb(0, 0, 0)" stroke-linecap="square" stroke-miterlimit="10" pointer-events="none"/><g fill="rgb(0, 0, 0)" font-family="Helvetica" font-weight="bold" pointer-events="none" clip-path="url(#mx-clip-270-30-30-30-0)" text-anchor="middle" font-size="12px"><text x="284.5" y="49.5">PK</text></g><path d="M 300 30 M 450 30 M 450 60 M 300 60" fill="none" stroke="rgb(0, 0, 0)" stroke-linecap="square" stroke-miterlimit="10" pointer-events="none"/><g fill="rgb(0, 0, 0)" font-family="Helvetica" font-weight="bold" text-decoration="underline" pointer-events="none" clip-path="url(#mx-clip-306-30-144-30-0)" font-size="12px"><text x="307.5" y="49.5">community_id</text></g><path d="M 270 60 M 300 60 M 300 90 M 270 90" fill="none" stroke="rgb(0, 0, 0)" stroke-linecap="square" stroke-miterlimit="10" pointer-events="none"/><path d="M 300 60 M 450 60 M 450 90 M 300 90" fill="none" stroke="rgb(0, 0, 0)" stroke-linecap="square" stroke-miterlimit="10" pointer-events="none"/><g fill="rgb(0, 0, 0)" font-family="Helvetica" pointer-events="none" clip-path="url(#mx-clip-306-60-144-30-0)" font-size="12px"><text x="307.5" y="79.5">name</text></g><path d="M 270 90 M 300 90 M 300 120 M 270 120" fill="none" stroke="rgb(0, 0, 0)" stroke-linecap="square" stroke-miterlimit="10" pointer-events="none"/><path d="M 300 90 M 450 90 M 450 120 M 300 120" fill="none" stroke="rgb(0, 0, 0)" stroke-linecap="square" stroke-miterlimit="10" pointer-events="none"/><g fill="rgb(0, 0, 0)" font-family="Helvetica" pointer-events="none" clip-path="url(#mx-clip-306-90-144-30-0)" font-size="12px"><text x="307.5" y="109.5">title</text></g><path d="M 270 120 M 300 120 M 300 150 M 270 150" fill="none" stroke="rgb(0, 0, 0)" stroke-linecap="square" stroke-miterlimit="10" pointer-events="none"/><path d="M 300 120 M 450 120 M 450 150 M 300 150" fill="none" stroke="rgb(0, 0, 0)" stroke-linecap="square" stroke-miterlimit="10" pointer-events="none"/><g fill="rgb(0, 0, 0)" font-family="Helvetica" pointer-events="none" clip-path="url(#mx-clip-306-120-144-30-0)" font-size="12px"><text x="307.5" y="139.5">description</text></g><path d="M 270 150 M 300 150 M 300 180 M 270 180" fill="none" stroke="rgb(0, 0, 0)" stroke-linecap="square" stroke-miterlimit="10" pointer-events="none"/><path d="M 300 150 M 450 150 M 450 180 M 300 180" fill="none" stroke="rgb(0, 0, 0)" stroke-linecap="square" stroke-miterlimit="10" pointer-events="none"/><g fill="rgb(0, 0, 0)" font-family="Helvetica" pointer-events="none" clip-path="url(#mx-clip-306-150-144-30-0)" font-size="12px"><text x="307.5" y="169.5">type</text></g><path d="M 270 180 M 300 180 M 300 210 M 270 210" fill="none" stroke="rgb(0, 0, 0)" stroke-linecap="square" stroke-miterlimit="10" pointer-events="none"/><path d="M 300 180 M 450 180 M 450 210 M 300 210" fill="none" stroke="rgb(0, 0, 0)" stroke-linecap="square" stroke-miterlimit="10" pointer-events="none"/><g fill="rgb(0, 0, 0)" font-family="Helvetica" pointer-events="none" clip-path="url(#mx-clip-306-180-144-30-0)" font-size="12px"><text x="307.5" y="199.5">logo_src</text></g><path d="M 270 210 M 300 210 M 300 240 M 270 240" fill="none" stroke="rgb(0, 0, 0)" stroke-linecap="square" stroke-miterlimit="10" pointer-events="none"/><path d="M 300 210 M 450 210 M 450 240 M 300 240" fill="none" stroke="rgb(0, 0, 0)" stroke-linecap="square" stroke-miterlimit="10" pointer-events="none"/><g fill="rgb(0, 0, 0)" font-family="Helvetica" pointer-events="none" clip-path="url(#mx-clip-306-210-144-30-0)" font-size="12px"><text x="307.5" y="229.5">logo_src</text></g><path d="M 514.5 80 L 490 80 L 450 80" fill="none" stroke="rgb(0, 0, 0)" stroke-miterlimit="10" pointer-events="none"/><ellipse cx="518" cy="80" rx="3" ry="3" fill="none" stroke="rgb(0, 0, 0)" pointer-events="none"/><path d="M 530 76 L 522 80 L 530 84 M 522 80 L 530 80" fill="none" stroke="rgb(0, 0, 0)" stroke-miterlimit="10" pointer-events="none"/><path d="M 454 76 L 454 84 M 458 76 L 458 84" fill="none" stroke="rgb(0, 0, 0)" stroke-miterlimit="10" pointer-events="none"/><path d="M 530 30 L 530 0 L 710 0 L 710 30" fill="rgb(255, 255, 255)" stroke="rgb(0, 0, 0)" stroke-miterlimit="10" pointer-events="none"/><path d="M 530 30 L 530 210 L 710 210 L 710 30" fill="none" stroke="rgb(0, 0, 0)" stroke-miterlimit="10" pointer-events="none"/><path d="M 530 30 L 710 30" fill="none" stroke="rgb(0, 0, 0)" stroke-miterlimit="10" pointer-events="none"/><path d="M 560 30 L 560 60 L 560 90 L 560 120 L 560 150 L 560 180 L 560 210" fill="none" stroke="rgb(0, 0, 0)" stroke-miterlimit="10" pointer-events="none"/><g fill="rgb(0, 0, 0)" font-family="Helvetica" font-weight="bold" pointer-events="none" text-anchor="middle" font-size="12px"><text x="619.5" y="19.5">Posts</text></g><path d="M 530 30 M 560 30 M 560 60 M 530 60" fill="none" stroke="rgb(0, 0, 0)" stroke-linecap="square" stroke-miterlimit="10" pointer-events="none"/><g fill="rgb(0, 0, 0)" font-family="Helvetica" font-weight="bold" pointer-events="none" clip-path="url(#mx-clip-530-30-30-30-0)" text-anchor="middle" font-size="12px"><text x="544.5" y="49.5">PK</text></g><path d="M 560 30 M 710 30 M 710 60 M 560 60" fill="none" stroke="rgb(0, 0, 0)" stroke-linecap="square" stroke-miterlimit="10" pointer-events="none"/><g fill="rgb(0, 0, 0)" font-family="Helvetica" font-weight="bold" text-decoration="underline" pointer-events="none" clip-path="url(#mx-clip-566-30-144-30-0)" font-size="12px"><text x="567.5" y="49.5">post_id</text></g><path d="M 530 60 M 710 60 M 710 90 L 530 90" fill="none" stroke="rgb(0, 0, 0)" stroke-linecap="square" stroke-miterlimit="10" pointer-events="none"/><path d="M 530 60 M 560 60 M 560 90 M 530 90" fill="none" stroke="rgb(0, 0, 0)" stroke-linecap="square" stroke-miterlimit="10" pointer-events="none"/><g fill="rgb(0, 0, 0)" font-family="Helvetica" font-weight="bold" pointer-events="none" clip-path="url(#mx-clip-530-60-30-30-0)" text-anchor="middle" font-size="12px"><text x="544.5" y="79.5">FK</text></g><path d="M 560 60 M 710 60 M 710 90 M 560 90" fill="none" stroke="rgb(0, 0, 0)" stroke-linecap="square" stroke-miterlimit="10" pointer-events="none"/><g fill="rgb(0, 0, 0)" font-family="Helvetica" font-weight="bold" pointer-events="none" clip-path="url(#mx-clip-566-60-144-30-0)" font-size="12px"><text x="567.5" y="79.5">community_id</text></g><path d="M 530 90 M 560 90 M 560 120 M 530 120" fill="none" stroke="rgb(0, 0, 0)" stroke-linecap="square" stroke-miterlimit="10" pointer-events="none"/><path d="M 560 90 M 710 90 M 710 120 M 560 120" fill="none" stroke="rgb(0, 0, 0)" stroke-linecap="square" stroke-miterlimit="10" pointer-events="none"/><g fill="rgb(0, 0, 0)" font-family="Helvetica" pointer-events="none" clip-path="url(#mx-clip-566-90-144-30-0)" font-size="12px"><text x="567.5" y="109.5">type</text></g><path d="M 530 120 M 560 120 M 560 150 M 530 150" fill="none" stroke="rgb(0, 0, 0)" stroke-linecap="square" stroke-miterlimit="10" pointer-events="none"/><path d="M 560 120 M 710 120 M 710 150 M 560 150" fill="none" stroke="rgb(0, 0, 0)" stroke-linecap="square" stroke-miterlimit="10" pointer-events="none"/><g fill="rgb(0, 0, 0)" font-family="Helvetica" pointer-events="none" clip-path="url(#mx-clip-566-120-144-30-0)" font-size="12px"><text x="567.5" y="139.5">title</text></g><path d="M 530 150 M 560 150 M 560 180 M 530 180" fill="none" stroke="rgb(0, 0, 0)" stroke-linecap="square" stroke-miterlimit="10" pointer-events="none"/><path d="M 560 150 M 710 150 M 710 180 M 560 180" fill="none" stroke="rgb(0, 0, 0)" stroke-linecap="square" stroke-miterlimit="10" pointer-events="none"/><g fill="rgb(0, 0, 0)" font-family="Helvetica" pointer-events="none" clip-path="url(#mx-clip-566-150-144-30-0)" font-size="12px"><text x="567.5" y="169.5">description</text></g><path d="M 530 180 M 560 180 M 560 210 M 530 210" fill="none" stroke="rgb(0, 0, 0)" stroke-linecap="square" stroke-miterlimit="10" pointer-events="none"/><path d="M 560 180 M 710 180 M 710 210 M 560 210" fill="none" stroke="rgb(0, 0, 0)" stroke-linecap="square" stroke-miterlimit="10" pointer-events="none"/><g fill="rgb(0, 0, 0)" font-family="Helvetica" pointer-events="none" clip-path="url(#mx-clip-566-180-144-30-0)" font-size="12px"><text x="567.5" y="199.5">media_src</text></g><path d="M 620 239.5 L 620 210" fill="none" stroke="rgb(0, 0, 0)" stroke-miterlimit="10" pointer-events="none"/><ellipse cx="620" cy="243" rx="3" ry="3" fill="none" stroke="rgb(0, 0, 0)" pointer-events="none"/><path d="M 624 255 L 620 247 L 616 255 M 620 247 L 620 255" fill="none" stroke="rgb(0, 0, 0)" stroke-miterlimit="10" pointer-events="none"/><path d="M 624 214 L 616 214 M 624 218 L 616 218" fill="none" stroke="rgb(0, 0, 0)" stroke-miterlimit="10" pointer-events="none"/><path d="M 530 285 L 530 255 L 710 255 L 710 285" fill="rgb(255, 255, 255)" stroke="rgb(0, 0, 0)" stroke-miterlimit="10" pointer-events="none"/><path d="M 530 285 L 530 375 L 710 375 L 710 285" fill="none" stroke="rgb(0, 0, 0)" stroke-miterlimit="10" pointer-events="none"/><path d="M 530 285 L 710 285" fill="none" stroke="rgb(0, 0, 0)" stroke-miterlimit="10" pointer-events="none"/><path d="M 590 285 L 590 315 L 590 345 L 590 375" fill="none" stroke="rgb(0, 0, 0)" stroke-miterlimit="10" pointer-events="none"/><g fill="rgb(0, 0, 0)" font-family="Helvetica" font-weight="bold" pointer-events="none" text-anchor="middle" font-size="12px"><text x="619.5" y="274.5">PostReactions</text></g><path d="M 530 285 M 590 285 M 590 315 M 530 315" fill="none" stroke="rgb(0, 0, 0)" stroke-linecap="square" stroke-miterlimit="10" pointer-events="none"/><g fill="rgb(0, 0, 0)" font-family="Helvetica" font-weight="bold" pointer-events="none" clip-path="url(#mx-clip-530-285-60-30-0)" text-anchor="middle" font-size="12px"><text x="559.5" y="304.5">PK,FK1</text></g><path d="M 590 285 M 710 285 M 710 315 M 590 315" fill="none" stroke="rgb(0, 0, 0)" stroke-linecap="square" stroke-miterlimit="10" pointer-events="none"/><g fill="rgb(0, 0, 0)" font-family="Helvetica" font-weight="bold" text-decoration="underline" pointer-events="none" clip-path="url(#mx-clip-596-285-114-30-0)" font-size="12px"><text x="597.5" y="304.5">post_id</text></g><path d="M 530 315 M 710 315 M 710 345 L 530 345" fill="none" stroke="rgb(0, 0, 0)" stroke-linecap="square" stroke-miterlimit="10" pointer-events="none"/><path d="M 530 315 M 590 315 M 590 345 M 530 345" fill="none" stroke="rgb(0, 0, 0)" stroke-linecap="square" stroke-miterlimit="10" pointer-events="none"/><g fill="rgb(0, 0, 0)" font-family="Helvetica" font-weight="bold" pointer-events="none" clip-path="url(#mx-clip-530-315-60-30-0)" text-anchor="middle" font-size="12px"><text x="559.5" y="334.5">PK,FK2</text></g><path d="M 590 315 M 710 315 M 710 345 M 590 345" fill="none" stroke="rgb(0, 0, 0)" stroke-linecap="square" stroke-miterlimit="10" pointer-events="none"/><g fill="rgb(0, 0, 0)" font-family="Helvetica" font-weight="bold" text-decoration="underline" pointer-events="none" clip-path="url(#mx-clip-596-315-114-30-0)" font-size="12px"><text x="597.5" y="334.5">user_id</text></g><path d="M 530 345 M 590 345 M 590 375 M 530 375" fill="none" stroke="rgb(0, 0, 0)" stroke-linecap="square" stroke-miterlimit="10" pointer-events="none"/><path d="M 590 345 M 710 345 M 710 375 M 590 375" fill="none" stroke="rgb(0, 0, 0)" stroke-linecap="square" stroke-miterlimit="10" pointer-events="none"/><g fill="rgb(0, 0, 0)" font-family="Helvetica" pointer-events="none" clip-path="url(#mx-clip-596-345-114-30-0)" font-size="12px"><text x="597.5" y="364.5">reaction</text></g><path d="M 725.5 530 L 750 530 L 750 105 L 710 105" fill="none" stroke="rgb(0, 0, 0)" stroke-miterlimit="10" pointer-events="none"/><ellipse cx="722" cy="530" rx="3" ry="3" fill="none" stroke="rgb(0, 0, 0)" pointer-events="none"/><path d="M 710 534 L 718 530 L 710 526 M 718 530 L 710 530" fill="none" stroke="rgb(0, 0, 0)" stroke-miterlimit="10" pointer-events="none"/><path d="M 714 101 L 714 109 M 718 101 L 718 109" fill="none" stroke="rgb(0, 0, 0)" stroke-miterlimit="10" pointer-events="none"/><path d="M 530 520 L 530 490 L 710 490 L 710 520" fill="rgb(255, 255, 255)" stroke="rgb(0, 0, 0)" stroke-miterlimit="10" pointer-events="none"/><path d="M 530 520 L 530 670 L 710 670 L 710 520" fill="none" stroke="rgb(0, 0, 0)" stroke-miterlimit="10" pointer-events="none"/><path d="M 530 520 L 710 520" fill="none" stroke="rgb(0, 0, 0)" stroke-miterlimit="10" pointer-events="none"/><path d="M 560 520 L 560 550 L 560 580 L 560 610 L 560 640 L 560 670" fill="none" stroke="rgb(0, 0, 0)" stroke-miterlimit="10" pointer-events="none"/><g fill="rgb(0, 0, 0)" font-family="Helvetica" font-weight="bold" pointer-events="none" text-anchor="middle" font-size="12px"><text x="619.5" y="509.5">Comments</text></g><path d="M 530 520 M 560 520 M 560 550 M 530 550" fill="none" stroke="rgb(0, 0, 0)" stroke-linecap="square" stroke-miterlimit="10" pointer-events="none"/><g fill="rgb(0, 0, 0)" font-family="Helvetica" font-weight="bold" pointer-events="none" clip-path="url(#mx-clip-530-520-30-30-0)" text-anchor="middle" font-size="12px"><text x="544.5" y="539.5">PK</text></g><path d="M 560 520 M 710 520 M 710 550 M 560 550" fill="none" stroke="rgb(0, 0, 0)" stroke-linecap="square" stroke-miterlimit="10" pointer-events="none"/><g fill="rgb(0, 0, 0)" font-family="Helvetica" font-weight="bold" text-decoration="underline" pointer-events="none" clip-path="url(#mx-clip-566-520-144-30-0)" font-size="12px"><text x="567.5" y="539.5">comment_id</text></g><path d="M 530 550 M 560 550 M 560 580 M 530 580" fill="none" stroke="rgb(0, 0, 0)" stroke-linecap="square" stroke-miterlimit="10" pointer-events="none"/><g fill="rgb(0, 0, 0)" font-family="Helvetica" font-weight="bold" pointer-events="none" clip-path="url(#mx-clip-530-550-30-30-0)" text-anchor="middle" font-size="12px"><text x="544.5" y="569.5">FK</text></g><path d="M 560 550 M 710 550 M 710 580 M 560 580" fill="none" stroke="rgb(0, 0, 0)" stroke-linecap="square" stroke-miterlimit="10" pointer-events="none"/><g fill="rgb(0, 0, 0)" font-family="Helvetica" font-weight="bold" pointer-events="none" clip-path="url(#mx-clip-566-550-144-30-0)" font-size="12px"><text x="567.5" y="569.5">post_id</text></g><path d="M 530 580 M 560 580 M 560 610 M 530 610" fill="none" stroke="rgb(0, 0, 0)" stroke-linecap="square" stroke-miterlimit="10" pointer-events="none"/><g fill="rgb(0, 0, 0)" font-family="Helvetica" font-weight="bold" pointer-events="none" clip-path="url(#mx-clip-530-580-30-30-0)" text-anchor="middle" font-size="12px"><text x="544.5" y="599.5">FK</text></g><path d="M 560 580 M 710 580 M 710 610 M 560 610" fill="none" stroke="rgb(0, 0, 0)" stroke-linecap="square" stroke-miterlimit="10" pointer-events="none"/><g fill="rgb(0, 0, 0)" font-family="Helvetica" font-weight="bold" pointer-events="none" clip-path="url(#mx-clip-566-580-144-30-0)" font-size="12px"><text x="567.5" y="599.5">parent_comment_id</text></g><path d="M 530 610 M 710 610 M 710 640 L 530 640" fill="none" stroke="rgb(0, 0, 0)" stroke-linecap="square" stroke-miterlimit="10" pointer-events="none"/><path d="M 530 610 M 560 610 M 560 640 M 530 640" fill="none" stroke="rgb(0, 0, 0)" stroke-linecap="square" stroke-miterlimit="10" pointer-events="none"/><g fill="rgb(0, 0, 0)" font-family="Helvetica" font-weight="bold" pointer-events="none" clip-path="url(#mx-clip-530-610-30-30-0)" text-anchor="middle" font-size="12px"><text x="544.5" y="629.5">FK</text></g><path d="M 560 610 M 710 610 M 710 640 M 560 640" fill="none" stroke="rgb(0, 0, 0)" stroke-linecap="square" stroke-miterlimit="10" pointer-events="none"/><g fill="rgb(0, 0, 0)" font-family="Helvetica" font-weight="bold" pointer-events="none" clip-path="url(#mx-clip-566-610-144-30-0)" font-size="12px"><text x="567.5" y="629.5">user_id</text></g><path d="M 530 640 M 560 640 M 560 670 M 530 670" fill="none" stroke="rgb(0, 0, 0)" stroke-linecap="square" stroke-miterlimit="10" pointer-events="none"/><path d="M 560 640 M 710 640 M 710 670 M 560 670" fill="none" stroke="rgb(0, 0, 0)" stroke-linecap="square" stroke-miterlimit="10" pointer-events="none"/><g fill="rgb(0, 0, 0)" font-family="Helvetica" pointer-events="none" clip-path="url(#mx-clip-566-640-144-30-0)" font-size="12px"><text x="567.5" y="659.5">message</text></g><path d="M 710 570 L 730 570 L 730 590 L 725.5 590" fill="none" stroke="rgb(0, 0, 0)" stroke-miterlimit="10" pointer-events="none"/><path d="M 714 566 L 714 574" fill="none" stroke="rgb(0, 0, 0)" stroke-miterlimit="10" pointer-events="none"/><ellipse cx="722" cy="590" rx="3" ry="3" fill="none" stroke="rgb(0, 0, 0)" pointer-events="none"/><path d="M 710 594 L 718 590 L 710 586 M 718 590 L 710 590" fill="none" stroke="rgb(0, 0, 0)" stroke-miterlimit="10" pointer-events="none"/><path d="M 465.5 550 L 490 550 L 530 550" fill="none" stroke="rgb(0, 0, 0)" stroke-miterlimit="10" pointer-events="none"/><ellipse cx="462" cy="550" rx="3" ry="3" fill="none" stroke="rgb(0, 0, 0)" pointer-events="none"/><path d="M 450 554 L 458 550 L 450 546 M 458 550 L 450 550" fill="none" stroke="rgb(0, 0, 0)" stroke-miterlimit="10" pointer-events="none"/><path d="M 526 554 L 526 546 M 522 554 L 522 546" fill="none" stroke="rgb(0, 0, 0)" stroke-miterlimit="10" pointer-events="none"/><path d="M 270 520 L 270 490 L 450 490 L 450 520" fill="rgb(255, 255, 255)" stroke="rgb(0, 0, 0)" stroke-miterlimit="10" pointer-events="none"/><path d="M 270 520 L 270 610 L 450 610 L 450 520" fill="none" stroke="rgb(0, 0, 0)" stroke-miterlimit="10" pointer-events="none"/><path d="M 270 520 L 450 520" fill="none" stroke="rgb(0, 0, 0)" stroke-miterlimit="10" pointer-events="none"/><path d="M 330 520 L 330 550 L 330 580 L 330 610" fill="none" stroke="rgb(0, 0, 0)" stroke-miterlimit="10" pointer-events="none"/><g fill="rgb(0, 0, 0)" font-family="Helvetica" font-weight="bold" pointer-events="none" text-anchor="middle" font-size="12px"><text x="359.5" y="509.5">CommentReactions</text></g><path d="M 270 520 M 330 520 M 330 550 M 270 550" fill="none" stroke="rgb(0, 0, 0)" stroke-linecap="square" stroke-miterlimit="10" pointer-events="none"/><g fill="rgb(0, 0, 0)" font-family="Helvetica" font-weight="bold" pointer-events="none" clip-path="url(#mx-clip-270-520-60-30-0)" text-anchor="middle" font-size="12px"><text x="299.5" y="539.5">PK,FK1</text></g><path d="M 330 520 M 450 520 M 450 550 M 330 550" fill="none" stroke="rgb(0, 0, 0)" stroke-linecap="square" stroke-miterlimit="10" pointer-events="none"/><g fill="rgb(0, 0, 0)" font-family="Helvetica" font-weight="bold" text-decoration="underline" pointer-events="none" clip-path="url(#mx-clip-336-520-114-30-0)" font-size="12px"><text x="337.5" y="539.5">comment_id</text></g><path d="M 270 550 M 450 550 M 450 580 L 270 580" fill="none" stroke="rgb(0, 0, 0)" stroke-linecap="square" stroke-miterlimit="10" pointer-events="none"/><path d="M 270 550 M 330 550 M 330 580 M 270 580" fill="none" stroke="rgb(0, 0, 0)" stroke-linecap="square" stroke-miterlimit="10" pointer-events="none"/><g fill="rgb(0, 0, 0)" font-family="Helvetica" font-weight="bold" pointer-events="none" clip-path="url(#mx-clip-270-550-60-30-0)" text-anchor="middle" font-size="12px"><text x="299.5" y="569.5">PK,FK2</text></g><path d="M 330 550 M 450 550 M 450 580 M 330 580" fill="none" stroke="rgb(0, 0, 0)" stroke-linecap="square" stroke-miterlimit="10" pointer-events="none"/><g fill="rgb(0, 0, 0)" font-family="Helvetica" font-weight="bold" text-decoration="underline" pointer-events="none" clip-path="url(#mx-clip-336-550-114-30-0)" font-size="12px"><text x="337.5" y="569.5">user_id</text></g><path d="M 270 580 M 330 580 M 330 610 M 270 610" fill="none" stroke="rgb(0, 0, 0)" stroke-linecap="square" stroke-miterlimit="10" pointer-events="none"/><path d="M 330 580 M 450 580 M 450 610 M 330 610" fill="none" stroke="rgb(0, 0, 0)" stroke-linecap="square" stroke-miterlimit="10" pointer-events="none"/><g fill="rgb(0, 0, 0)" font-family="Helvetica" pointer-events="none" clip-path="url(#mx-clip-336-580-114-30-0)" font-size="12px"><text x="337.5" y="599.5">reaction</text></g><path d="M 0 520 L 0 490 L 180 490 L 180 520" fill="rgb(255, 255, 255)" stroke="rgb(0, 0, 0)" stroke-miterlimit="10" pointer-events="none"/><path d="M 0 520 L 0 580 L 180 580 L 180 520" fill="none" stroke="rgb(0, 0, 0)" stroke-miterlimit="10" pointer-events="none"/><path d="M 0 520 L 180 520" fill="none" stroke="rgb(0, 0, 0)" stroke-miterlimit="10" pointer-events="none"/><path d="M 60 520 L 60 550 L 60 580" fill="none" stroke="rgb(0, 0, 0)" stroke-miterlimit="10" pointer-events="none"/><g fill="rgb(0, 0, 0)" font-family="Helvetica" font-weight="bold" pointer-events="none" text-anchor="middle" font-size="12px"><text x="89.5" y="509.5">Follows</text></g><path d="M 0 520 M 60 520 M 60 550 M 0 550" fill="none" stroke="rgb(0, 0, 0)" stroke-linecap="square" stroke-miterlimit="10" pointer-events="none"/><g fill="rgb(0, 0, 0)" font-family="Helvetica" font-weight="bold" pointer-events="none" clip-path="url(#mx-clip-0-520-60-30-0)" text-anchor="middle" font-size="12px"><text x="29.5" y="539.5">PK,FK1</text></g><path d="M 60 520 M 180 520 M 180 550 M 60 550" fill="none" stroke="rgb(0, 0, 0)" stroke-linecap="square" stroke-miterlimit="10" pointer-events="none"/><g fill="rgb(0, 0, 0)" font-family="Helvetica" font-weight="bold" text-decoration="underline" pointer-events="none" clip-path="url(#mx-clip-66-520-114-30-0)" font-size="12px"><text x="67.5" y="539.5">follower_id</text></g><path d="M 0 550 M 180 550 M 180 580 L 0 580" fill="none" stroke="rgb(0, 0, 0)" stroke-linecap="square" stroke-miterlimit="10" pointer-events="none"/><path d="M 0 550 M 60 550 M 60 580 M 0 580" fill="none" stroke="rgb(0, 0, 0)" stroke-linecap="square" stroke-miterlimit="10" pointer-events="none"/><g fill="rgb(0, 0, 0)" font-family="Helvetica" font-weight="bold" pointer-events="none" clip-path="url(#mx-clip-0-550-60-30-0)" text-anchor="middle" font-size="12px"><text x="29.5" y="569.5">PK,FK2</text></g><path d="M 60 550 M 180 550 M 180 580 M 60 580" fill="none" stroke="rgb(0, 0, 0)" stroke-linecap="square" stroke-miterlimit="10" pointer-events="none"/><g fill="rgb(0, 0, 0)" font-family="Helvetica" font-weight="bold" text-decoration="underline" pointer-events="none" clip-path="url(#mx-clip-66-550-114-30-0)" font-size="12px"><text x="67.5" y="569.5">followed_id</text></g><path d="M 195.5 330 L 225 330 L 270 330" fill="none" stroke="rgb(0, 0, 0)" stroke-miterlimit="10" pointer-events="none"/><ellipse cx="192" cy="330" rx="3" ry="3" fill="none" stroke="rgb(0, 0, 0)" pointer-events="none"/><path d="M 180 334 L 188 330 L 180 326 M 188 330 L 180 330" fill="none" stroke="rgb(0, 0, 0)" stroke-miterlimit="10" pointer-events="none"/><path d="M 266 334 L 266 326 M 262 334 L 262 326" fill="none" stroke="rgb(0, 0, 0)" stroke-miterlimit="10" pointer-events="none"/><path d="M 0 284 L 0 254 L 180 254 L 180 284" fill="rgb(255, 255, 255)" stroke="rgb(0, 0, 0)" stroke-miterlimit="10" pointer-events="none"/><path d="M 0 284 L 0 434 L 180 434 L 180 284" fill="none" stroke="rgb(0, 0, 0)" stroke-miterlimit="10" pointer-events="none"/><path d="M 0 284 L 180 284" fill="none" stroke="rgb(0, 0, 0)" stroke-miterlimit="10" pointer-events="none"/><path d="M 30 284 L 30 314 L 30 344 L 30 374 L 30 404 L 30 434" fill="none" stroke="rgb(0, 0, 0)" stroke-miterlimit="10" pointer-events="none"/><g fill="rgb(0, 0, 0)" font-family="Helvetica" font-weight="bold" pointer-events="none" text-anchor="middle" font-size="12px"><text x="89.5" y="273.5">Messages</text></g><path d="M 0 284 M 30 284 M 30 314 M 0 314" fill="none" stroke="rgb(0, 0, 0)" stroke-linecap="square" stroke-miterlimit="10" pointer-events="none"/><g fill="rgb(0, 0, 0)" font-family="Helvetica" font-weight="bold" pointer-events="none" clip-path="url(#mx-clip-0-284-30-30-0)" text-anchor="middle" font-size="12px"><text x="14.5" y="303.5">PK</text></g><path d="M 30 284 M 180 284 M 180 314 M 30 314" fill="none" stroke="rgb(0, 0, 0)" stroke-linecap="square" stroke-miterlimit="10" pointer-events="none"/><g fill="rgb(0, 0, 0)" font-family="Helvetica" font-weight="bold" text-decoration="underline" pointer-events="none" clip-path="url(#mx-clip-36-284-144-30-0)" font-size="12px"><text x="37.5" y="303.5">message_id</text></g><path d="M 0 314 M 30 314 M 30 344 M 0 344" fill="none" stroke="rgb(0, 0, 0)" stroke-linecap="square" stroke-miterlimit="10" pointer-events="none"/><g fill="rgb(0, 0, 0)" font-family="Helvetica" font-weight="bold" pointer-events="none" clip-path="url(#mx-clip-0-314-30-30-0)" text-anchor="middle" font-size="12px"><text x="14.5" y="333.5">FK</text></g><path d="M 30 314 M 180 314 M 180 344 M 30 344" fill="none" stroke="rgb(0, 0, 0)" stroke-linecap="square" stroke-miterlimit="10" pointer-events="none"/><g fill="rgb(0, 0, 0)" font-family="Helvetica" font-weight="bold" pointer-events="none" clip-path="url(#mx-clip-36-314-144-30-0)" font-size="12px"><text x="37.5" y="333.5">sender_id</text></g><path d="M 0 344 M 180 344 M 180 374 L 0 374" fill="none" stroke="rgb(0, 0, 0)" stroke-linecap="square" stroke-miterlimit="10" pointer-events="none"/><path d="M 0 344 M 30 344 M 30 374 M 0 374" fill="none" stroke="rgb(0, 0, 0)" stroke-linecap="square" stroke-miterlimit="10" pointer-events="none"/><g fill="rgb(0, 0, 0)" font-family="Helvetica" font-weight="bold" pointer-events="none" clip-path="url(#mx-clip-0-344-30-30-0)" text-anchor="middle" font-size="12px"><text x="14.5" y="363.5">FK</text></g><path d="M 30 344 M 180 344 M 180 374 M 30 374" fill="none" stroke="rgb(0, 0, 0)" stroke-linecap="square" stroke-miterlimit="10" pointer-events="none"/><g fill="rgb(0, 0, 0)" font-family="Helvetica" font-weight="bold" pointer-events="none" clip-path="url(#mx-clip-36-344-144-30-0)" font-size="12px"><text x="37.5" y="363.5">recipient_id</text></g><path d="M 0 374 M 30 374 M 30 404 M 0 404" fill="none" stroke="rgb(0, 0, 0)" stroke-linecap="square" stroke-miterlimit="10" pointer-events="none"/><path d="M 30 374 M 180 374 M 180 404 M 30 404" fill="none" stroke="rgb(0, 0, 0)" stroke-linecap="square" stroke-miterlimit="10" pointer-events="none"/><g fill="rgb(0, 0, 0)" font-family="Helvetica" pointer-events="none" clip-path="url(#mx-clip-36-374-144-30-0)" font-size="12px"><text x="37.5" y="393.5">message</text></g><path d="M 0 404 M 30 404 M 30 434 M 0 434" fill="none" stroke="rgb(0, 0, 0)" stroke-linecap="square" stroke-miterlimit="10" pointer-events="none"/><path d="M 30 404 M 180 404 M 180 434 M 30 434" fill="none" stroke="rgb(0, 0, 0)" stroke-linecap="square" stroke-miterlimit="10" pointer-events="none"/><g fill="rgb(0, 0, 0)" font-family="Helvetica" pointer-events="none" clip-path="url(#mx-clip-36-404-144-30-0)" font-size="12px"><text x="37.5" y="423.5">is_read</text></g></g></svg>