<?xml version="1.0" encoding="UTF-8"?>
<!DOCTYPE svg PUBLIC "-//W3C//DTD SVG 1.1//EN" "http://www.w3.org/Graphics/SVG/1.1/DTD/svg11.dtd">
<svg xmlns="http://www.w3.org/2000/svg" xmlns:xlink="http://www.w3.org/1999/xlink" version="1.1" width="780px" height="871px" viewBox="-0.5 -0.5 780 871" style="background-color: rgb(255, 255, 255);"><defs><clipPath id="mx-clip-284-328-152-94-0"><rect x="284" y="328" width="152" height="94"/></clipPath><clipPath id="mx-clip-284-430-152-82-0"><rect x="284" y="430" width="152" height="82"/></clipPath><clipPath id="mx-clip-594-58-152-94-0"><rect x="594" y="58" width="152" height="94"/></clipPath><clipPath id="mx-clip-594-160-152-82-0"><rect x="594" y="160" width="152" height="82"/></clipPath><clipPath id="mx-clip-284-38-152-94-0"><rect x="284" y="38" width="152" height="94"/></clipPath><clipPath id="mx-clip-284-140-152-82-0"><rect x="284" y="140" width="152" height="82"/></clipPath><clipPath id="mx-clip-594-648-152-94-0"><rect x="594" y="648" width="152" height="94"/></clipPath><clipPath id="mx-clip-594-750-152-82-0"><rect x="594" y="750" width="152" height="82"/></clipPath><clipPath id="mx-clip-4-148-152-94-0"><rect x="4" y="148" width="152" height="94"/></clipPath><clipPath id="mx-clip-4-250-152-82-0"><rect x="4" y="250" width="152" height="82"/></clipPath><clipPath id="mx-clip-294-658-152-94-0"><rect x="294" y="658" width="152" height="94"/></clipPath><clipPath id="mx-clip-294-760-152-82-0"><rect x="294" y="760" width="152" height="82"/></clipPath><clipPath id="mx-clip-594-328-152-94-0"><rect x="594" y="328" width="152" height="94"/></clipPath><clipPath id="mx-clip-594-430-152-82-0"><rect x="594" y="430" width="152" height="82"/></clipPath><clipPath id="mx-clip-4-428-152-94-0"><rect x="4" y="428" width="152" height="94"/></clipPath><clipPath id="mx-clip-4-530-152-82-0"><rect x="4" y="530" width="152" height="82"/></clipPath><clipPath id="mx-clip-4-688-152-94-0"><rect x="4" y="688" width="152" height="94"/></clipPath><clipPath id="mx-clip-4-790-152-82-0"><rect x="4" y="790" width="152" height="82"/></clipPath></defs><g><path d="M 440 402 L 530 402 L 530 132 L 581.88 132" fill="none" stroke="rgba(0, 0, 0, 1)" stroke-miterlimit="10" pointer-events="stroke"/><path d="M 588.88 132 L 581.88 135.5 L 581.88 128.5 Z" fill="none" stroke="rgba(0, 0, 0, 1)" stroke-miterlimit="10" pointer-events="all"/><path d="M 440 447 L 530 447 L 530 567 L 680 567 L 680 610.63" fill="none" stroke="rgba(0, 0, 0, 1)" stroke-miterlimit="10" pointer-events="stroke"/><path d="M 680 615.88 L 676.5 608.88 L 680 610.63 L 683.5 608.88 Z" fill="rgba(0, 0, 0, 1)" stroke="rgba(0, 0, 0, 1)" stroke-miterlimit="10" pointer-events="all"/><path d="M 280 337 L 215 337 L 215 222 L 166.37 222" fill="none" stroke="rgba(0, 0, 0, 1)" stroke-miterlimit="10" pointer-events="stroke"/><path d="M 161.12 222 L 168.12 218.5 L 166.37 222 L 168.12 225.5 Z" fill="rgba(0, 0, 0, 1)" stroke="rgba(0, 0, 0, 1)" stroke-miterlimit="10" pointer-events="all"/><path d="M 360 507 L 360 597 L 360 620.63" fill="none" stroke="rgba(0, 0, 0, 1)" stroke-miterlimit="10" pointer-events="stroke"/><path d="M 360 625.88 L 356.5 618.88 L 360 620.63 L 363.5 618.88 Z" fill="rgba(0, 0, 0, 1)" stroke="rgba(0, 0, 0, 1)" stroke-miterlimit="10" pointer-events="all"/><path d="M 440 427 L 540 427 L 583.63 427" fill="none" stroke="rgba(0, 0, 0, 1)" stroke-miterlimit="10" pointer-events="stroke"/><path d="M 588.88 427 L 581.88 430.5 L 583.63 427 L 581.88 423.5 Z" fill="rgba(0, 0, 0, 1)" stroke="rgba(0, 0, 0, 1)" stroke-miterlimit="10" pointer-events="all"/><path d="M 280 367 L 90 367 L 90 390.63" fill="none" stroke="rgba(0, 0, 0, 1)" stroke-miterlimit="10" pointer-events="stroke"/><path d="M 90 395.88 L 86.5 388.88 L 90 390.63 L 93.5 388.88 Z" fill="rgba(0, 0, 0, 1)" stroke="rgba(0, 0, 0, 1)" stroke-miterlimit="10" pointer-events="all"/><path d="M 280 437 L 210 437 L 210 667 L 166.37 667" fill="none" stroke="rgba(0, 0, 0, 1)" stroke-miterlimit="10" pointer-events="stroke"/><path d="M 161.12 667 L 168.12 663.5 L 166.37 667 L 168.12 670.5 Z" fill="rgba(0, 0, 0, 1)" stroke="rgba(0, 0, 0, 1)" stroke-miterlimit="10" pointer-events="all"/><path d="M 280 323 L 280 297 L 440 297 L 440 323" fill="rgba(255, 255, 255, 1)" stroke="rgba(0, 0, 0, 1)" stroke-miterlimit="10" pointer-events="all"/><path d="M 280 323 L 280 507 L 440 507 L 440 323" fill="none" stroke="rgba(0, 0, 0, 1)" stroke-miterlimit="10" pointer-events="none"/><path d="M 280 323 L 440 323" fill="none" stroke="rgba(0, 0, 0, 1)" stroke-miterlimit="10" pointer-events="none"/><g fill="rgba(0, 0, 0, 1)" font-family="Helvetica" font-weight="bold" pointer-events="none" text-anchor="middle" font-size="12px"><text x="359.5" y="314.5">User</text></g><g fill="rgba(0, 0, 0, 1)" font-family="Helvetica" pointer-events="none" clip-path="url(#mx-clip-284-328-152-94-0)" font-size="12px"><text x="285.5" y="340.5">+ user_id: int</text><text x="285.5" y="354.5">+ email: string</text><text x="285.5" y="368.5">+ username: string</text><text x="285.5" y="382.5">+ profile_pic_src: string</text><text x="285.5" y="396.5">- password: string</text></g><path d="M 280 421 L 440 421" fill="none" stroke="rgba(0, 0, 0, 1)" stroke-miterlimit="10" pointer-events="none"/><g fill="rgba(0, 0, 0, 1)" font-family="Helvetica" pointer-events="none" clip-path="url(#mx-clip-284-430-152-82-0)" font-size="12px"><text x="285.5" y="442.5">+ signUp()</text><text x="285.5" y="456.5">+ logIn()</text><text x="285.5" y="470.5">+ logOut()</text></g><path d="M 590 107 L 515 107 L 515 80 L 448.12 80" fill="none" stroke="rgba(0, 0, 0, 1)" stroke-miterlimit="10" pointer-events="none"/><path d="M 441.12 80 L 448.12 76.5 L 448.12 83.5 Z" fill="none" stroke="rgba(0, 0, 0, 1)" stroke-miterlimit="10" pointer-events="none"/><path d="M 590 53 L 590 27 L 750 27 L 750 53" fill="rgba(255, 255, 255, 1)" stroke="rgba(0, 0, 0, 1)" stroke-miterlimit="10" pointer-events="none"/><path d="M 590 53 L 590 237 L 750 237 L 750 53" fill="none" stroke="rgba(0, 0, 0, 1)" stroke-miterlimit="10" pointer-events="none"/><path d="M 590 53 L 750 53" fill="none" stroke="rgba(0, 0, 0, 1)" stroke-miterlimit="10" pointer-events="none"/><g fill="rgba(0, 0, 0, 1)" font-family="Helvetica" font-weight="bold" pointer-events="none" text-anchor="middle" font-size="12px"><text x="669.5" y="44.5">Post</text></g><g fill="rgba(0, 0, 0, 1)" font-family="Helvetica" pointer-events="none" clip-path="url(#mx-clip-594-58-152-94-0)" font-size="12px"><text x="595.5" y="70.5">+ post_id: int</text><text x="595.5" y="84.5">+ community_id: int</text><text x="595.5" y="98.5">+ title: string</text><text x="595.5" y="112.5">+ description: string</text><text x="595.5" y="126.5">+ media_src: string</text></g><path d="M 590 151 L 750 151" fill="none" stroke="rgba(0, 0, 0, 1)" stroke-miterlimit="10" pointer-events="none"/><g fill="rgba(0, 0, 0, 1)" font-family="Helvetica" pointer-events="none" clip-path="url(#mx-clip-594-160-152-82-0)" font-size="12px"><text x="595.5" y="172.5">+ delete()</text></g><path d="M 280 33 L 280 7 L 440 7 L 440 33" fill="rgba(255, 255, 255, 1)" stroke="rgba(0, 0, 0, 1)" stroke-miterlimit="10" pointer-events="none"/><path d="M 280 33 L 280 217 L 440 217 L 440 33" fill="none" stroke="rgba(0, 0, 0, 1)" stroke-miterlimit="10" pointer-events="none"/><path d="M 280 33 L 440 33" fill="none" stroke="rgba(0, 0, 0, 1)" stroke-miterlimit="10" pointer-events="none"/><g fill="rgba(0, 0, 0, 1)" font-family="Helvetica" font-weight="bold" pointer-events="none" text-anchor="middle" font-size="12px"><text x="359.5" y="24.5">Community</text></g><g fill="rgba(0, 0, 0, 1)" font-family="Helvetica" pointer-events="none" clip-path="url(#mx-clip-284-38-152-94-0)" font-size="12px"><text x="285.5" y="50.5">+ community_id: int</text><text x="285.5" y="64.5">+ name: string</text><text x="285.5" y="78.5">+ title: string</text><text x="285.5" y="92.5">+ description: string</text><text x="285.5" y="106.5">+ logo_src: string</text><text x="285.5" y="120.5">+ type: string</text></g><path d="M 280 131 L 440 131" fill="none" stroke="rgba(0, 0, 0, 1)" stroke-miterlimit="10" pointer-events="none"/><g fill="rgba(0, 0, 0, 1)" font-family="Helvetica" pointer-events="none" clip-path="url(#mx-clip-284-140-152-82-0)" font-size="12px"><text x="285.5" y="152.5">+ join()</text><text x="285.5" y="166.5"># edit()</text></g><path d="M 750 667 L 770 667 L 770 7 L 710 7 L 710 20.63" fill="none" stroke="rgba(0, 0, 0, 1)" stroke-miterlimit="10" pointer-events="none"/><path d="M 710 25.88 L 706.5 18.88 L 710 20.63 L 713.5 18.88 Z" fill="rgba(0, 0, 0, 1)" stroke="rgba(0, 0, 0, 1)" stroke-miterlimit="10" pointer-events="none"/><path d="M 590 643 L 590 617 L 750 617 L 750 643" fill="rgba(255, 255, 255, 1)" stroke="rgba(0, 0, 0, 1)" stroke-miterlimit="10" pointer-events="none"/><path d="M 590 643 L 590 827 L 750 827 L 750 643" fill="none" stroke="rgba(0, 0, 0, 1)" stroke-miterlimit="10" pointer-events="none"/><path d="M 590 643 L 750 643" fill="none" stroke="rgba(0, 0, 0, 1)" stroke-miterlimit="10" pointer-events="none"/><g fill="rgba(0, 0, 0, 1)" font-family="Helvetica" font-weight="bold" pointer-events="none" text-anchor="middle" font-size="12px"><text x="669.5" y="634.5">Comment</text></g><g fill="rgba(0, 0, 0, 1)" font-family="Helvetica" pointer-events="none" clip-path="url(#mx-clip-594-648-152-94-0)" font-size="12px"><text x="595.5" y="660.5">+ comment_id: int</text><text x="595.5" y="674.5">+ post_id: int</text><text x="595.5" y="688.5">+ parent_comment_id: int</text><text x="595.5" y="702.5">+ user_id: int</text><text x="595.5" y="716.5">+ message: string</text></g><path d="M 590 741 L 750 741" fill="none" stroke="rgba(0, 0, 0, 1)" stroke-miterlimit="10" pointer-events="none"/><path d="M 750 786 L 770 786 L 770 690 L 756.37 690" fill="none" stroke="rgba(0, 0, 0, 1)" stroke-miterlimit="10" pointer-events="none"/><path d="M 751.12 690 L 758.12 686.5 L 756.37 690 L 758.12 693.5 Z" fill="rgba(0, 0, 0, 1)" stroke="rgba(0, 0, 0, 1)" stroke-miterlimit="10" pointer-events="none"/><g fill="rgba(0, 0, 0, 1)" font-family="Helvetica" pointer-events="none" clip-path="url(#mx-clip-594-750-152-82-0)" font-size="12px"><text x="595.5" y="762.5">+ add()</text><text x="595.5" y="776.5">+ delete()</text></g><path d="M 70 117 L 70 80 L 273.63 80" fill="none" stroke="rgba(0, 0, 0, 1)" stroke-miterlimit="10" pointer-events="none"/><path d="M 278.88 80 L 271.88 83.5 L 273.63 80 L 271.88 76.5 Z" fill="rgba(0, 0, 0, 1)" stroke="rgba(0, 0, 0, 1)" stroke-miterlimit="10" pointer-events="none"/><path d="M 0 143 L 0 117 L 160 117 L 160 143" fill="rgba(255, 255, 255, 1)" stroke="rgba(0, 0, 0, 1)" stroke-miterlimit="10" pointer-events="none"/><path d="M 0 143 L 0 327 L 160 327 L 160 143" fill="none" stroke="rgba(0, 0, 0, 1)" stroke-miterlimit="10" pointer-events="none"/><path d="M 0 143 L 160 143" fill="none" stroke="rgba(0, 0, 0, 1)" stroke-miterlimit="10" pointer-events="none"/><g fill="rgba(0, 0, 0, 1)" font-family="Helvetica" font-weight="bold" pointer-events="none" text-anchor="middle" font-size="12px"><text x="79.5" y="134.5">Member</text></g><g fill="rgba(0, 0, 0, 1)" font-family="Helvetica" pointer-events="none" clip-path="url(#mx-clip-4-148-152-94-0)" font-size="12px"><text x="5.5" y="160.5">+ community_id: int</text><text x="5.5" y="174.5">+ user_id: int</text><text x="5.5" y="188.5">+ type: string</text></g><path d="M 0 241 L 160 241" fill="none" stroke="rgba(0, 0, 0, 1)" stroke-miterlimit="10" pointer-events="none"/><g fill="rgba(0, 0, 0, 1)" font-family="Helvetica" pointer-events="none" clip-path="url(#mx-clip-4-250-152-82-0)" font-size="12px"><text x="5.5" y="262.5">+ leave()</text></g><path d="M 290 653 L 290 627 L 450 627 L 450 653" fill="rgba(255, 255, 255, 1)" stroke="rgba(0, 0, 0, 1)" stroke-miterlimit="10" pointer-events="none"/><path d="M 290 653 L 290 837 L 450 837 L 450 653" fill="none" stroke="rgba(0, 0, 0, 1)" stroke-miterlimit="10" pointer-events="none"/><path d="M 290 653 L 450 653" fill="none" stroke="rgba(0, 0, 0, 1)" stroke-miterlimit="10" pointer-events="none"/><g fill="rgba(0, 0, 0, 1)" font-family="Helvetica" font-weight="bold" pointer-events="none" text-anchor="middle" font-size="12px"><text x="369.5" y="644.5">Comment Reaction</text></g><g fill="rgba(0, 0, 0, 1)" font-family="Helvetica" pointer-events="none" clip-path="url(#mx-clip-294-658-152-94-0)" font-size="12px"><text x="295.5" y="670.5">+ comment_id: int</text><text x="295.5" y="684.5">+ user_id: int</text><text x="295.5" y="698.5">+ reaction: string</text></g><path d="M 290 751 L 450 751" fill="none" stroke="rgba(0, 0, 0, 1)" stroke-miterlimit="10" pointer-events="none"/><g fill="rgba(0, 0, 0, 1)" font-family="Helvetica" pointer-events="none" clip-path="url(#mx-clip-294-760-152-82-0)" font-size="12px"><text x="295.5" y="772.5">+ add()</text><text x="295.5" y="786.5">+ delete()</text></g><path d="M 450 700 L 550 700 L 583.63 700" fill="none" stroke="rgba(0, 0, 0, 1)" stroke-miterlimit="10" pointer-events="none"/><path d="M 588.88 700 L 581.88 703.5 L 583.63 700 L 581.88 696.5 Z" fill="rgba(0, 0, 0, 1)" stroke="rgba(0, 0, 0, 1)" stroke-miterlimit="10" pointer-events="none"/><path d="M 670 297 L 670 243.37" fill="none" stroke="rgba(0, 0, 0, 1)" stroke-miterlimit="10" pointer-events="none"/><path d="M 670 238.12 L 673.5 245.12 L 670 243.37 L 666.5 245.12 Z" fill="rgba(0, 0, 0, 1)" stroke="rgba(0, 0, 0, 1)" stroke-miterlimit="10" pointer-events="none"/><path d="M 590 323 L 590 297 L 750 297 L 750 323" fill="rgba(255, 255, 255, 1)" stroke="rgba(0, 0, 0, 1)" stroke-miterlimit="10" pointer-events="none"/><path d="M 590 323 L 590 507 L 750 507 L 750 323" fill="none" stroke="rgba(0, 0, 0, 1)" stroke-miterlimit="10" pointer-events="none"/><path d="M 590 323 L 750 323" fill="none" stroke="rgba(0, 0, 0, 1)" stroke-miterlimit="10" pointer-events="none"/><g fill="rgba(0, 0, 0, 1)" font-family="Helvetica" font-weight="bold" pointer-events="none" text-anchor="middle" font-size="12px"><text x="669.5" y="314.5">Post Reaction</text></g><g fill="rgba(0, 0, 0, 1)" font-family="Helvetica" pointer-events="none" clip-path="url(#mx-clip-594-328-152-94-0)" font-size="12px"><text x="595.5" y="340.5">+ post_id: int</text><text x="595.5" y="354.5">+ user_id: int</text><text x="595.5" y="368.5">+ reaction: string</text></g><path d="M 590 421 L 750 421" fill="none" stroke="rgba(0, 0, 0, 1)" stroke-miterlimit="10" pointer-events="none"/><g fill="rgba(0, 0, 0, 1)" font-family="Helvetica" pointer-events="none" clip-path="url(#mx-clip-594-430-152-82-0)" font-size="12px"><text x="595.5" y="442.5">+ add()</text><text x="595.5" y="456.5">+ delete()</text></g><path d="M 160 417 L 220 417 L 273.63 417" fill="none" stroke="rgba(0, 0, 0, 1)" stroke-miterlimit="10" pointer-events="none"/><path d="M 278.88 417 L 271.88 420.5 L 273.63 417 L 271.88 413.5 Z" fill="rgba(0, 0, 0, 1)" stroke="rgba(0, 0, 0, 1)" stroke-miterlimit="10" pointer-events="none"/><path d="M 0 423 L 0 397 L 160 397 L 160 423" fill="rgba(255, 255, 255, 1)" stroke="rgba(0, 0, 0, 1)" stroke-miterlimit="10" pointer-events="none"/><path d="M 0 423 L 0 607 L 160 607 L 160 423" fill="none" stroke="rgba(0, 0, 0, 1)" stroke-miterlimit="10" pointer-events="none"/><path d="M 0 423 L 160 423" fill="none" stroke="rgba(0, 0, 0, 1)" stroke-miterlimit="10" pointer-events="none"/><g fill="rgba(0, 0, 0, 1)" font-family="Helvetica" font-weight="bold" pointer-events="none" text-anchor="middle" font-size="12px"><text x="79.5" y="414.5">Message</text></g><g fill="rgba(0, 0, 0, 1)" font-family="Helvetica" pointer-events="none" clip-path="url(#mx-clip-4-428-152-94-0)" font-size="12px"><text x="5.5" y="440.5">+ message_id: int</text><text x="5.5" y="454.5">+ sender_id: int</text><text x="5.5" y="468.5">+ recipient_id: int</text><text x="5.5" y="482.5">+ message: string</text><text x="5.5" y="496.5">+ is_read: bool</text></g><path d="M 0 521 L 160 521" fill="none" stroke="rgba(0, 0, 0, 1)" stroke-miterlimit="10" pointer-events="none"/><g fill="rgba(0, 0, 0, 1)" font-family="Helvetica" pointer-events="none" clip-path="url(#mx-clip-4-530-152-82-0)" font-size="12px"><text x="5.5" y="542.5">+ send()</text></g><path d="M 0 683 L 0 657 L 160 657 L 160 683" fill="rgba(255, 255, 255, 1)" stroke="rgba(0, 0, 0, 1)" stroke-miterlimit="10" pointer-events="none"/><path d="M 0 683 L 0 867 L 160 867 L 160 683" fill="none" stroke="rgba(0, 0, 0, 1)" stroke-miterlimit="10" pointer-events="none"/><path d="M 0 683 L 160 683" fill="none" stroke="rgba(0, 0, 0, 1)" stroke-miterlimit="10" pointer-events="none"/><g fill="rgba(0, 0, 0, 1)" font-family="Helvetica" font-weight="bold" pointer-events="none" text-anchor="middle" font-size="12px"><text x="79.5" y="674.5">Follow</text></g><g fill="rgba(0, 0, 0, 1)" font-family="Helvetica" pointer-events="none" clip-path="url(#mx-clip-4-688-152-94-0)" font-size="12px"><text x="5.5" y="700.5">+ follower_id: int</text><text x="5.5" y="714.5">+ followed_id: int</text></g><path d="M 0 781 L 160 781" fill="none" stroke="rgba(0, 0, 0, 1)" stroke-miterlimit="10" pointer-events="none"/><g fill="rgba(0, 0, 0, 1)" font-family="Helvetica" pointer-events="none" clip-path="url(#mx-clip-4-790-152-82-0)" font-size="12px"><text x="5.5" y="802.5">+ follow()</text><text x="5.5" y="816.5">+ unfollow()</text><text x="5.5" y="830.5">+ remove()</text></g><path d="M 160 707 L 250 707 L 250 467 L 273.63 467" fill="none" stroke="rgba(0, 0, 0, 1)" stroke-miterlimit="10" pointer-events="none"/><path d="M 278.88 467 L 271.88 470.5 L 273.63 467 L 271.88 463.5 Z" fill="rgba(0, 0, 0, 1)" stroke="rgba(0, 0, 0, 1)" stroke-miterlimit="10" pointer-events="none"/></g></svg>